<svg width="20" height="20" viewBox="0 0 20 20" fill="none" xmlns="http://www.w3.org/2000/svg">
<path d="M19.6986 12.419C18.363 17.7762 12.937 21.0365 7.57919 19.7006C2.22361 18.365 -1.03667 12.9387 0.299485 7.58197C1.63447 2.22419 7.06044 -1.03634 12.4166 0.299234C17.7741 1.63481 21.0341 7.0617 19.6984 12.4191L19.6985 12.419H19.6986Z" fill="#F3BA2F"/>
<path fill-rule="evenodd" clip-rule="evenodd" d="M10 6.34659L7.4106 8.93603L7.41065 8.93592L5.90404 7.42925L10 3.33325L14.0974 7.43048L12.5907 8.93715L10 6.34659ZM4.84009 8.49299L3.33337 9.99992L4.83999 11.5063L6.34671 9.9996L4.84009 8.49299ZM7.4106 11.064L10 13.6533L12.5907 11.0627L14.0981 12.5686L14.0974 12.5694L10 16.6666L5.90404 12.5706L5.90191 12.5685L7.4106 11.064ZM15.1601 8.49384L13.6534 10.0006L15.16 11.5072L16.6667 10.0005L15.1601 8.49384Z" fill="white"/>
<path d="M11.5281 9.99931H11.5287L9.99999 8.47046L8.87002 9.60011V9.60011L8.7402 9.72998L8.47247 9.99777L8.47034 9.99985L8.47247 10.002L9.99999 11.5298L11.5288 10.0009L11.5296 10.0001L11.5282 9.99931" fill="white"/>
</svg>
