<svg width="19" height="19" viewBox="0 0 19 19" fill="none" xmlns="http://www.w3.org/2000/svg">
<path fill-rule="evenodd" clip-rule="evenodd" d="M10.4895 1.29318C12.2085 -0.425852 14.9956 -0.425852 16.7146 1.29318C18.4337 3.01221 18.4337 5.79932 16.7146 7.51835L15.6431 8.58988C15.2915 8.9415 14.7214 8.9415 14.3698 8.58988C14.0182 8.23826 14.0182 7.66817 14.3698 7.31655L15.4413 6.24502C16.4571 5.22923 16.4571 3.5823 15.4413 2.56651C14.4255 1.55072 12.7786 1.55072 11.7628 2.56651L8.22576 6.10354C7.20997 7.11933 7.20997 8.76626 8.22576 9.78205C8.57738 10.1337 8.57738 10.7038 8.22576 11.0554C7.87414 11.407 7.30405 11.407 6.95243 11.0554C5.2334 9.33635 5.2334 6.54924 6.95243 4.83021L10.4895 1.29318ZM9.78205 6.95243C10.1337 6.60081 10.7038 6.60081 11.0554 6.95243C12.7744 8.67147 12.7744 11.4586 11.0554 13.1776L7.51835 16.7146C5.79932 18.4337 3.01221 18.4337 1.29318 16.7146C-0.425852 14.9956 -0.425852 12.2085 1.29318 10.4895L2.41498 9.36766C2.7666 9.01604 3.33669 9.01604 3.68831 9.36766C4.03993 9.71928 4.03994 10.2894 3.68831 10.641L2.56651 11.7628C1.55072 12.7786 1.55072 14.4255 2.56651 15.4413C3.5823 16.4571 5.22923 16.4571 6.24502 15.4413L9.78205 11.9043C10.7978 10.8885 10.7978 9.24156 9.78205 8.22576C9.43043 7.87414 9.43043 7.30405 9.78205 6.95243Z" fill="white"/>
</svg>
