<svg width="20" height="17" viewBox="0 0 20 17" fill="none" xmlns="http://www.w3.org/2000/svg">
<path fill-rule="evenodd" clip-rule="evenodd" d="M5.76228 0.100098H13.5C15.3777 0.100098 16.9 1.62233 16.9 3.5001V4.23168C17.2046 4.29235 17.4934 4.38395 17.7705 4.52517C18.5044 4.89908 19.101 5.4957 19.4749 6.22954C19.7138 6.69842 19.8107 7.2005 19.8561 7.75642C19.9 8.29349 19.9 8.95434 19.9 9.76239V11.2378C19.9 12.0459 19.9 12.7067 19.8561 13.2438C19.8107 13.7997 19.7138 14.3018 19.4749 14.7707C19.101 15.5045 18.5044 16.1011 17.7705 16.475C17.3017 16.7139 16.7996 16.8108 16.2437 16.8562C15.7066 16.9001 15.0457 16.9001 14.2377 16.9001H8.50185L8.49998 16.9001H5.76227C4.95426 16.9001 4.29335 16.9001 3.75629 16.8562C3.72155 16.8534 3.68701 16.8504 3.65269 16.8471C3.13775 16.7982 2.669 16.699 2.22941 16.475C2.18355 16.4517 2.13822 16.4274 2.09345 16.4023C1.42187 16.026 0.875588 15.4586 0.525051 14.7707C0.28614 14.3018 0.189258 13.7997 0.143838 13.2438C0.0999575 12.7067 0.0999658 12.0459 0.0999759 11.2378V5.7624C0.0999658 4.95435 0.0999575 4.29349 0.143838 3.75642C0.189258 3.2005 0.28614 2.69842 0.525051 2.22954C0.898957 1.4957 1.49558 0.899079 2.22941 0.525173C2.6983 0.286262 3.20038 0.18938 3.75629 0.14396C4.29337 0.10008 4.95423 0.100088 5.76228 0.100098ZM1.92441 7.50012L1.89998 11.2001C1.89998 12.055 1.90068 12.6421 1.93786 13.0972C1.97419 13.5418 2.04079 13.7806 2.12886 13.9535C2.3302 14.3486 2.65146 14.6699 3.0466 14.8712C3.21944 14.9593 3.45827 15.0259 3.90287 15.0622C4.35798 15.0994 4.94505 15.1001 5.79998 15.1001H14.2C15.0549 15.1001 15.642 15.0994 16.0971 15.0622C16.5417 15.0259 16.7805 14.9593 16.9534 14.8712C17.3485 14.6699 17.6698 14.3486 17.8711 13.9535C17.9592 13.7806 18.0258 13.5418 18.0621 13.0972C18.0993 12.6421 18.1 12.055 18.1 11.2001V9.8001C18.1 8.94517 18.0993 8.3581 18.0621 7.90299C18.0258 7.45839 17.9592 7.21956 17.8711 7.04672C17.6698 6.65158 17.3485 6.33032 16.9534 6.12898C16.7805 6.04092 16.5417 5.97431 16.0971 5.93798C15.642 5.9008 15.0549 5.9001 14.2 5.9001L6.99988 6.0001H3.42443C2.59599 6.0001 1.92441 6.67168 1.92441 7.50012V7.50012ZM1.92441 4.1001L14.2377 4.1001C14.5461 4.10009 14.8331 4.10009 15.1 4.10253V3.5001C15.1 2.61644 14.3836 1.9001 13.5 1.9001H5.79998C4.94505 1.9001 4.35798 1.9008 3.90287 1.93798C3.45827 1.97431 3.21944 2.04092 3.0466 2.12898C2.65146 2.33032 2.3302 2.65158 2.12886 3.04672C2.04079 3.21957 1.97419 3.45839 1.93786 3.90299C1.93271 3.96604 1.92826 4.03162 1.92441 4.1001ZM12.3999 8.80299C12.3999 8.30594 12.8028 7.90299 13.2999 7.90299H14.4999C14.9969 7.90299 15.3999 8.30594 15.3999 8.80299C15.3999 9.30005 14.9969 9.70299 14.4999 9.70299H13.2999C12.8028 9.70299 12.3999 9.30005 12.3999 8.80299Z" fill="white"/>
</svg>
