<svg width="18" height="19" viewBox="0 0 18 19" fill="none" xmlns="http://www.w3.org/2000/svg">
<path d="M13 5.5V3.5C13 2.96957 12.7893 2.46086 12.4142 2.08579C12.0391 1.71071 11.5304 1.5 11 1.5H3C2.46957 1.5 1.96086 1.71071 1.58579 2.08579C1.21071 2.46086 1 2.96957 1 3.5V11.5C1 12.0304 1.21071 12.5391 1.58579 12.9142C1.96086 13.2893 2.46957 13.5 3 13.5H5M7 5.5H15C16.1046 5.5 17 6.39543 17 7.5V15.5C17 16.6046 16.1046 17.5 15 17.5H7C5.89543 17.5 5 16.6046 5 15.5V7.5C5 6.39543 5.89543 5.5 7 5.5Z" stroke="#8C8AAC" stroke-width="2" stroke-linecap="round" stroke-linejoin="round"/>
</svg>
