<svg width="20" height="20" viewBox="0 0 20 20" fill="none" xmlns="http://www.w3.org/2000/svg">
<circle cx="10" cy="10" r="10" fill="#EDF0F4"/>
<path d="M13.0004 7.99151C12.7872 7.86886 12.513 7.86886 12.2693 7.99151L10.5635 9.00338L9.40596 9.6473L7.73059 10.6592C7.51737 10.7818 7.24321 10.7818 6.99952 10.6592L5.68969 9.86194C5.47646 9.73929 5.32415 9.49398 5.32415 9.21802V7.68488C5.32415 7.43958 5.446 7.19428 5.68969 7.04097L6.99952 6.2744C7.21275 6.15175 7.4869 6.15175 7.73059 6.2744L9.04043 7.07163C9.25366 7.19428 9.40596 7.43958 9.40596 7.71555V8.72742L10.5635 8.05284V7.0103C10.5635 6.765 10.4416 6.5197 10.198 6.36639L7.76106 4.92524C7.54783 4.80259 7.27368 4.80259 7.02999 4.92524L4.53216 6.39705C4.28847 6.5197 4.16663 6.765 4.16663 7.0103V9.8926C4.16663 10.1379 4.28847 10.3832 4.53216 10.5365L6.99952 11.9777C7.21275 12.1003 7.4869 12.1003 7.73059 11.9777L9.40596 10.9965L10.5635 10.3219L12.2389 9.34067C12.4521 9.21802 12.7262 9.21802 12.9699 9.34067L14.2798 10.1072C14.493 10.2299 14.6453 10.4752 14.6453 10.7512V12.2843C14.6453 12.5296 14.5235 12.7749 14.2798 12.9282L13.0004 13.6948C12.7872 13.8174 12.513 13.8174 12.2693 13.6948L10.9595 12.9282C10.7463 12.8056 10.594 12.5603 10.594 12.2843V11.3031L9.43643 11.9777V12.9895C9.43643 13.2348 9.55827 13.4801 9.80196 13.6334L12.2693 15.0746C12.4826 15.1972 12.7567 15.1972 13.0004 15.0746L15.4678 13.6334C15.681 13.5108 15.8333 13.2655 15.8333 12.9895V10.0766C15.8333 9.83127 15.7114 9.58597 15.4678 9.43266L13.0004 7.99151Z" fill="#8247E5"/>
</svg>
