<svg width="15" height="17" viewBox="0 0 15 17" fill="none" xmlns="http://www.w3.org/2000/svg">
<path d="M7.67373 1.45694C7.77747 1.45694 7.88043 1.45694 7.98261 1.45694C6.97291 2.39115 6.3239 3.64813 6.14839 5.00938C5.97289 6.37063 6.28198 7.75008 7.02195 8.90795C7.76192 10.0658 8.88597 10.9289 10.1987 11.3471C11.5115 11.7654 12.9299 11.7124 14.2075 11.1973C13.716 12.3747 12.9128 13.3972 11.8835 14.1558C10.8542 14.9143 9.63741 15.3804 8.36294 15.5043C7.08847 15.6282 5.80412 15.4053 4.64689 14.8594C3.48965 14.3135 2.50295 13.4651 1.79202 12.4045C1.0811 11.344 0.672623 10.1113 0.610166 8.8377C0.547709 7.56416 0.833614 6.29761 1.43738 5.17317C2.04115 4.04873 2.94014 3.10858 4.03845 2.453C5.13676 1.79741 6.39319 1.45099 7.67373 1.45068V1.45694Z" stroke="white" stroke-linecap="round" stroke-linejoin="round"/>
</svg>
